<?xml version="1.0" encoding="UTF-8"?>
<svg version="1.1" viewBox="0 0 1125.9 634.36" xmlns="http://www.w3.org/2000/svg">
 <g transform="translate(-4.5306 -5.5147)" fill-rule="evenodd" stroke-width="3">
  <g stroke="#0000ef">
   <path d="m224.01 376.16-189.84-53.11c10.16-124.85 101.53-163.01 142.38-94.4l106.22-5.1417-58.757 152.66z" fill="#e9fc4f"/>
   <path d="m748.89 529.78-445.84-135.56c-101.66-126.87 220.52-247.79 259.68-246.11l412.98 59.991c373.14 123.1-38.158 252.82-226.82 321.68z" fill="#fce94f"/>
   <path d="m373.13 198.32-245.54 14.12c-1.18-39.01 213.55-164.31 408.89-68.53l-163.34 54.41z" fill="#fcfd4f"/>
   <path d="m496.76 127.05c11.41-8.9934 114.54 20.326 72.675 30.402l-179.12 82.194c-80.804 37.078-94.01 101.66-81.542 149.8l-98.709-22.189c-10.838-10.913-4.01-89.386 37.431-124.7 63.83-54.391 239.14-118.58 249.27-115.51z" fill="#eeeeec"/>
  </g>
  <path d="m208.05 154.15c-18.28-7.13 1.13-103.75-7.56-101.34l-39.466 10.961 1.6877 105.79-13.698 7.2469c-1.8804-72.782 0.96918-90.259 0.74734-108.14-26.011 5.0373-40.393 17.067-40.706 25.737l-5.0554 139.89c0.61864-36.507-8.8236 19.017-14.302-9.4923-4.8304-25.139 4.9703-133.71 2.6976-132.56-26.291 13.301-44.152 29.333-45.588 48.412l-5.3562 170.57 705.92 200.23 4.6689-124.65c-9.712-35.577 6.4537-67.663 36.348-99.279 84.4-44.41 180.88-64.666 277-85.624 39.36-7.4933 61.851 3.7561 65.065 36.424l-7.1793 258.4-22.165 7.8063 2.6606-93.079-327.19 136.73-2.5584 91.696-27.662-2.4849-4.0638-93.8-696.89-197.18-6.0401 110.05c-0.5156 13.843-10.252 18.466-34.836 8.2407l4.6001-335.84c25.049-91.823 297.61-116.74 323.96-123.35 66.364 0.66744 43.063 80.213 55.059 106.25l-32.322-6.8727c7.7494-43.055 6.0921-99.147-64.683-74.984l2.0974 93.613-14.628 8.8712-7.702-97.518-53.608 12.12-0.3319 110.63-8.9354-3.4849zm638.8 140.77-2.2758 194.32-70.314 28.397 4.7507-132.71c7.2838-46.172 16.402-75.949 67.84-90.009zm217.91-67.534-58.671 16.622-4.7824 179.93 59.574-22.941 3.8794-173.61zm-143.1 38.266-59.717 19.828-7.5515 197.35 63.734-26.889 3.5353-190.29zm73.855-19.512-0.5527 180.24-62.619 26.641 2.6471-191.71 60.524-15.172zm118.47 8.7529-5.1265 124.17-34.004 15.023 2.1205-171.91c15.52 4.2839 29.2 1.4478 37.01 32.715z" fill="#2e3436" fill-opacity=".941"/>
  <g fill="#eeeeec" stroke="#0000ef">
   <path d="m234.6 243.71c-54.89 0.49-110.47 22.37-161.35-13.23l12.05-34.16c134.16-24.769 209.07 55.036 149.3 47.387z"/>
   <path d="m254.47 243.65c-27.89-49.87-107.95-57.04-178.12-45.75 76.867-39.107 63.671-48.635 204.97-96.319 49.679-29.464 108.37-1.6466 153.93 35.443 0 37.776-137.36 66.347-180.78 106.63z"/>
  </g>
 </g>
</svg>
